<svg width="36" height="36" viewBox="0 0 36 36" fill="none" xmlns="http://www.w3.org/2000/svg">
<g opacity="0.9">
<path fill-rule="evenodd" clip-rule="evenodd" d="M18.36 1.44043C27.3229 1.44043 34.56 8.67751 34.56 17.6404C34.56 26.6034 27.3229 33.8404 18.36 33.8404C9.3971 33.8404 2.16003 26.6034 2.16003 17.6404C2.16003 8.67751 9.3971 1.44043 18.36 1.44043Z" fill="white"/>
<path fill-rule="evenodd" clip-rule="evenodd" d="M18 0C8.07512 0 0 8.07512 0 18C0 27.9249 8.07512 36 18 36C27.9249 36 36 27.9249 36 18C36 8.07512 27.9249 0 18 0ZM18 2.16C26.7637 2.16 33.84 9.23625 33.84 18C33.84 26.7638 26.7637 33.84 18 33.84C9.23624 33.84 2.15999 26.7638 2.15999 18C2.15999 9.23625 9.23624 2.16 18 2.16ZM16.8 12C16.8 11.3373 17.3373 10.8 18 10.8C18.6627 10.8 19.2 11.3373 19.2 12V16.8H24C24.6627 16.8 25.2 17.3373 25.2 18C25.2 18.6627 24.6627 19.2 24 19.2H19.2V24C19.2 24.6627 18.6627 25.2 18 25.2C17.3373 25.2 16.8 24.6627 16.8 24V19.2H12C11.3373 19.2 10.8 18.6627 10.8 18C10.8 17.3373 11.3373 16.8 12 16.8H16.8V12Z" fill="#425AF2"/>
</g>
</svg>
