<svg width="24" height="24" viewBox="0 0 24 24" fill="none" xmlns="http://www.w3.org/2000/svg">
<path fill-rule="evenodd" clip-rule="evenodd" d="M21.625 5.81244H18.1182C17.7919 4.21153 16.3838 3.06152 14.75 3.06152C13.1161 3.06152 11.7081 4.21153 11.3817 5.81244H2.375V7.18744H11.3818C11.7081 8.78834 13.1162 9.93835 14.75 9.93835C16.3839 9.93835 17.7919 8.78834 18.1183 7.18744H21.625V5.81244ZM14.75 8.56243C13.6109 8.56243 12.6875 7.63902 12.6875 6.49993C12.6875 5.36085 13.6109 4.43743 14.75 4.43743C15.8891 4.43743 16.8125 5.36085 16.8125 6.49993C16.8112 7.63849 15.8886 8.56115 14.75 8.56243ZM21.625 16.8124H12.6182C12.2919 15.2115 10.8838 14.0615 9.24997 14.0615C7.61614 14.0615 6.20806 15.2115 5.88173 16.8124H2.375V18.1874H5.8818C6.20813 19.7883 7.61621 20.9383 9.25003 20.9383C10.8839 20.9383 12.2919 19.7883 12.6183 18.1874H21.625V16.8124ZM9.25 19.5624C8.11091 19.5624 7.1875 18.639 7.1875 17.4999C7.1875 16.3608 8.11091 15.4374 9.25 15.4374C10.3891 15.4374 11.3125 16.3608 11.3125 17.4999C11.3112 18.6385 10.3886 19.5611 9.25 19.5624Z" fill="#425AF2"/>
<mask id="mask0" mask-type="alpha" maskUnits="userSpaceOnUse" x="2" y="3" width="20" height="18">
<path fill-rule="evenodd" clip-rule="evenodd" d="M21.625 5.81244H18.1182C17.7919 4.21153 16.3838 3.06152 14.75 3.06152C13.1161 3.06152 11.7081 4.21153 11.3817 5.81244H2.375V7.18744H11.3818C11.7081 8.78834 13.1162 9.93835 14.75 9.93835C16.3839 9.93835 17.7919 8.78834 18.1183 7.18744H21.625V5.81244ZM14.75 8.56243C13.6109 8.56243 12.6875 7.63902 12.6875 6.49993C12.6875 5.36085 13.6109 4.43743 14.75 4.43743C15.8891 4.43743 16.8125 5.36085 16.8125 6.49993C16.8112 7.63849 15.8886 8.56115 14.75 8.56243ZM21.625 16.8124H12.6182C12.2919 15.2115 10.8838 14.0615 9.24997 14.0615C7.61614 14.0615 6.20806 15.2115 5.88173 16.8124H2.375V18.1874H5.8818C6.20813 19.7883 7.61621 20.9383 9.25003 20.9383C10.8839 20.9383 12.2919 19.7883 12.6183 18.1874H21.625V16.8124ZM9.25 19.5624C8.11091 19.5624 7.1875 18.639 7.1875 17.4999C7.1875 16.3608 8.11091 15.4374 9.25 15.4374C10.3891 15.4374 11.3125 16.3608 11.3125 17.4999C11.3112 18.6385 10.3886 19.5611 9.25 19.5624Z" fill="white"/>
</mask>
<g mask="url(#mask0)">
</g>
</svg>
